<svg height="512pt" viewBox="0 0 512 512" width="512pt" xmlns="http://www.w3.org/2000/svg"><path d="m512 256c0 141.386719-114.613281 256-256 256s-256-114.613281-256-256 114.613281-256 256-256 256 114.613281 256 256zm0 0" fill="#ffe05c"/><path d="m382.121094 449.578125v29.246094c-37.222656 21.117187-80.261719 33.175781-126.121094 33.175781-27.03125 0-53.070312-4.191406-77.53125-11.953125-17.03125-5.402344-33.300781-12.550781-48.589844-21.222656v-29.246094c0-49.914063 38.445313-90.863281 87.355469-94.8125 2.570313-.210937 5.160156-.316406 7.785156-.316406h61.953125c7.324219 0 14.449219.816406 21.292969 2.382812 42.296875 9.675781 73.855469 47.53125 73.855469 92.746094zm0 0" fill="#dd104f"/><path d="m382.121094 449.578125v29.246094c-22.726563 12.894531-47.613282 22.414062-74 27.855469-14.773438 3.0625-30.019532 4.847656-45.609375 5.234374-2.160157.054688-4.335938.085938-6.507813.085938-27.03125 0-53.070312-4.191406-77.53125-11.953125v-50.46875c0-6.742187.699219-13.324219 2.035156-19.667969 2.71875-12.957031 8.078126-24.929687 15.488282-35.359375 17.238281-24.269531 45.585937-40.101562 77.625-40.101562h13.351562c52.558594 0 95.148438 42.589843 95.148438 95.128906zm0 0" fill="#f73b6c"/><path d="m432.714844 198.300781-86.527344 83.832031h-180.371094l-7.625-7.386718-78.910156-76.445313h50.632812l-44.105468-46.582031h43.886718l-32.453124-32.457031h35.515624l-33.886718-33.875h59.601562l-28.578125-28.578125h76.914063v-44.25l49.195312 49.203125 49.191406-49.203125v44.25h76.90625l-28.566406 28.578125h59.589844l-33.875 33.875h35.515625l-32.457031 32.457031h43.878906l-44.097656 46.582031zm0 0" fill="#2f373b"/><path d="m170.3125 151.71875v130.414062h-4.496094l-7.625-7.386718-78.910156-76.445313h50.632812l-44.105468-46.582031zm0 0" fill="#151a1c"/><path d="m297.101562 356.601562v2.371094c0 18.128906-11.628906 33.90625-28.953124 39.257813-3.917969 1.222656-8.015626 1.839843-12.152344 1.839843-22.664063 0-41.097656-18.433593-41.097656-41.097656v-4.242187c2.320312-.1875 4.660156-.28125 7.03125-.28125h55.945312c6.613281 0 13.050781.742187 19.226562 2.152343zm0 0" fill="#f2efea"/><path d="m289.941406 317.800781v41.65625c0 15.25-10.054687 28.140625-23.90625 32.421875-3.167968.980469-6.546875 1.515625-10.042968 1.515625-18.742188 0-33.9375-15.195312-33.9375-33.9375v-41.65625zm0 0" fill="#eaa27f"/><path d="m289.941406 356.816406v2.640625c0 15.25-10.054687 28.140625-23.90625 32.421875-12.496094-3.84375-21.890625-14.707031-23.625-28.003906 2.265625.140625 4.546875.210938 6.835938.210938 6.421875 0 12.71875-.511719 18.851562-1.519532 7.554688-1.210937 14.855469-3.15625 21.84375-5.75zm0 0" fill="#f6ba97"/><path d="m162.886719 249.535156c0 15.710938-11.476563 28.742188-26.507813 31.160156-1.640625.265626-3.332031.402344-5.054687.402344-17.4375 0-31.566407-14.125-31.566407-31.5625s14.128907-31.566406 31.566407-31.566406c1.722656 0 3.414062.140625 5.054687.40625 15.03125 2.417969 26.507813 15.445312 26.507813 31.160156zm0 0" fill="#f6ba97"/><path d="m162.886719 249.535156c0 15.710938-11.476563 28.742188-26.507813 31.160156-2.730468-9.929687-4.1875-20.378906-4.1875-31.160156 0-10.785156 1.457032-21.234375 4.1875-31.160156 15.03125 2.417969 26.507813 15.445312 26.507813 31.160156zm0 0" fill="#eaa27f"/><path d="m142.605469 249.535156c0 6.230469-5.050781 11.28125-11.28125 11.28125s-11.285157-5.050781-11.285157-11.28125c0-6.230468 5.054688-11.28125 11.285157-11.28125s11.28125 5.050782 11.28125 11.28125zm0 0" fill="#eaa27f"/><path d="m349.105469 249.535156c0 15.710938 11.476562 28.742188 26.507812 31.160156 1.644531.265626 3.332031.402344 5.054688.402344 17.4375 0 31.566406-14.125 31.566406-31.5625s-14.128906-31.566406-31.566406-31.566406c-1.722657 0-3.410157.140625-5.054688.40625-15.03125 2.417969-26.507812 15.445312-26.507812 31.160156zm0 0" fill="#f6ba97"/><path d="m349.105469 249.535156c0 15.710938 11.476562 28.742188 26.507812 31.160156 2.730469-9.929687 4.1875-20.378906 4.1875-31.160156 0-10.785156-1.457031-21.234375-4.1875-31.160156-15.03125 2.417969-26.507812 15.445312-26.507812 31.160156zm0 0" fill="#eaa27f"/><path d="m373.4375 188.039062v44.722657c0 58.441406-42.691406 106.921875-98.59375 115.917969-.1875.03125-.386719.0625-.574219.097656-5.945312.949218-12.050781 1.417968-18.277343 1.417968-64.855469 0-117.4375-52.578124-117.4375-117.433593v-44.722657c0-13.65625 2.332031-26.78125 6.636718-38.976562 16.058594-45.703125 59.613282-78.46875 110.800782-78.46875h.011718c6.214844 0 12.328125.480469 18.285156 1.417969 56.171876 8.777343 99.148438 57.386719 99.148438 116.027343zm0 0" fill="#eaa27f"/><path d="m391.953125 249.535156c0 6.230469-5.050781 11.28125-11.285156 11.28125-6.230469 0-11.28125-5.050781-11.28125-11.28125 0-6.230468 5.050781-11.28125 11.28125-11.28125 6.234375 0 11.285156 5.050782 11.285156 11.28125zm0 0" fill="#eaa27f"/><path d="m373.4375 188.039062v44.722657c0 58.441406-42.691406 106.921875-98.59375 115.917969-.1875.03125-.386719.0625-.574219.097656-56.175781-8.777344-99.140625-57.386719-99.140625-116.015625v-44.722657c0-58.640624 42.976563-107.25 99.160156-116.027343 56.171876 8.777343 99.148438 57.386719 99.148438 116.027343zm0 0" fill="#f6ba97"/><path d="m255.996094 290.601562c-9.835938 0-19.667969-2.464843-28.632813-7.390624-2.53125-1.390626-3.453125-4.566407-2.0625-7.097657 1.390625-2.527343 4.566407-3.449219 7.09375-2.0625 14.777344 8.125 32.421875 8.125 47.199219 0 2.527344-1.386719 5.703125-.464843 7.09375 2.0625 1.390625 2.53125.46875 5.707031-2.0625 7.097657-8.960938 4.925781-18.796875 7.390624-28.628906 7.390624zm0 0" fill="#eaa27f"/><path d="m269.316406 259.464844h-26.644531c-3.175781 0-5.746094-2.570313-5.746094-5.746094s2.570313-5.746094 5.746094-5.746094h26.644531c3.175782 0 5.746094 2.570313 5.746094 5.746094s-2.570312 5.746094-5.746094 5.746094zm0 0" fill="#eaa27f"/><path d="m230.984375 225.921875c0 7.359375-5.960937 13.320313-13.320313 13.320313-7.359374 0-13.324218-5.960938-13.324218-13.320313s5.964844-13.324219 13.324218-13.324219c7.359376 0 13.320313 5.964844 13.320313 13.324219zm0 0" fill="#2f373b"/><path d="m307.65625 225.921875c0 7.359375-5.964844 13.320313-13.324219 13.320313s-13.324219-5.960938-13.324219-13.320313 5.964844-13.324219 13.324219-13.324219 13.324219 5.964844 13.324219 13.324219zm0 0" fill="#2f373b"/><path d="m228.269531 223.570312c0 3.152344-2.554687 5.707032-5.707031 5.707032s-5.710938-2.554688-5.710938-5.707032c0-3.152343 2.558594-5.707031 5.710938-5.707031s5.707031 2.554688 5.707031 5.707031zm0 0" fill="#fff"/><path d="m305.59375 223.570312c0 3.152344-2.558594 5.707032-5.710938 5.707032-3.152343 0-5.707031-2.554688-5.707031-5.707032 0-3.152343 2.554688-5.707031 5.707031-5.707031 3.152344 0 5.710938 2.554688 5.710938 5.707031zm0 0" fill="#fff"/><path d="m382.308594 151.71875-6.695313 66.65625-9.550781.4375-27.367188-88.714844v47.023438l-78.367187-48.589844 12.539063 47.019531-76.390626-55.035156 10.574219 48.765625-40.753906-20.375-17.636719 69.90625-13.6875-17.148438-5.277344-49.945312 41.578126-44.992188 14.679687-29.058593 43.027344-9.773438 27.023437-6.132812 60.75 11.921875 62.496094 45.578125zm0 0" fill="#2f373b"/><g fill="#151a1c"><path d="m305.195312 12.558594-26.054687 76.792968-23.136719-27.589843zm0 0"/><path d="m382.101562 56.808594-76.320312 16.875-.585938-16.875zm0 0"/><path d="m229.765625 118.867188-33.289063 1.648437 10.574219 48.765625-40.753906-20.375-17.636719 69.90625-12.28125-.4375-6.683594-66.65625-32.453124-32.457031h35.515624l-33.886718-33.875h59.601562l-28.578125-28.578125h76.914063v-44.25l49.195312 49.203125 11.132813 8.054687 12.003906 19.535156-50.160156-32.542968 9.257812 38.558594-34.324219-20.648438zm0 0"/></g></svg>